<svg xmlns="http://www.w3.org/2000/svg" width="24" height="24" viewBox="0 0 24 20">
  <path id="telegram-1" d="M18.384,22.779a1.189,1.189,0,0,0,1.107.145,1.16,1.16,0,0,0,.724-.84C21.084,18,23.192,7.663,23.983,3.948a.781.781,0,0,0-.26-.758.8.8,0,0,0-.8-.14C18.733,4.6,5.82,9.447.542,11.4a.822.822,0,0,0,.051,1.563c2.367.708,5.474,1.693,5.474,1.693s1.452,4.385,2.209,6.615a.876.876,0,0,0,.6.576.866.866,0,0,0,.811-.207l3.1-2.923s3.572,2.619,5.6,4.062ZM7.374,14.1,9.053,19.64l.373-3.507L19.611,6.947a.277.277,0,0,0,.033-.377.284.284,0,0,0-.376-.064L7.374,14.1Z" transform="translate(0 -3)" fill="#fff" fill-rule="evenodd"/>
</svg>